<?xml version="1.0" standalone="no"?>
<!DOCTYPE svg PUBLIC "-//W3C//DTD SVG 20010904//EN"
 "http://www.w3.org/TR/2001/REC-SVG-20010904/DTD/svg10.dtd">
<svg version="1.0" xmlns="http://www.w3.org/2000/svg"
 width="666.000000pt" height="666.000000pt" viewBox="0 0 666.000000 666.000000"
 preserveAspectRatio="xMidYMid meet">
<metadata>
Created by potrace 1.14, written by Peter Selinger 2001-2017
</metadata>
<g transform="translate(0.000000,666.000000) scale(0.100000,-0.100000)"
fill="#000000" stroke="none">
<path d="M4440 5814 c-102 -37 -181 -133 -201 -246 -15 -84 -2 -171 50 -335
l37 -118 -93 3 c-218 9 -391 -71 -580 -264 l-103 -105 -142 36 c-427 108 -920
132 -1328 65 -183 -30 -406 -90 -510 -137 -30 -14 -76 -34 -102 -44 -66 -26
-156 -72 -234 -119 -35 -22 -70 -40 -78 -40 -7 0 -22 -11 -32 -25 -10 -14 -23
-25 -27 -25 -18 0 -250 -191 -301 -247 -11 -13 -26 -23 -33 -23 -7 0 -13 -6
-13 -12 0 -18 -56 -79 -64 -71 -3 3 -6 2 -6 -4 0 -10 -64 -95 -103 -138 -10
-11 -56 -77 -102 -146 -134 -203 -272 -484 -335 -684 -70 -222 -125 -485 -136
-655 -6 -78 -4 -87 16 -110 l22 -25 338 -3 338 -3 16 -70 c15 -65 70 -189 88
-197 5 -2 8 -10 8 -17 0 -8 20 -34 45 -59 25 -26 45 -51 45 -56 0 -6 -92 -10
-253 -10 -252 0 -254 0 -275 -23 -31 -33 -29 -83 4 -113 l25 -24 935 0 c692 0
941 3 957 12 52 27 62 83 22 123 l-24 25 -256 0 c-286 0 -272 -5 -204 70 73
81 149 240 149 314 l0 26 1005 0 1005 0 6 -27 c19 -85 29 -115 60 -179 19 -39
57 -96 84 -125 27 -30 49 -60 50 -66 0 -10 -51 -13 -224 -13 l-223 0 -27 -25
c-39 -36 -35 -93 9 -117 28 -16 130 -17 1443 -18 1414 0 1414 0 1443 21 23 16
29 28 29 58 0 23 -8 47 -19 59 l-18 22 -757 0 c-660 0 -756 2 -756 15 0 8 11
22 25 31 14 9 23 20 20 24 -2 4 3 16 13 26 52 57 102 162 122 256 l13 57 386
3 c379 3 387 3 410 24 l23 22 -4 308 c-4 281 -6 316 -26 387 -26 91 -97 260
-112 265 -5 2 -10 10 -10 18 0 8 -4 14 -10 14 -5 0 -10 6 -10 13 0 28 -162
198 -232 244 -24 16 -52 36 -62 45 -36 33 -181 97 -276 123 -119 33 -231 70
-290 97 -94 42 -136 63 -165 83 -16 11 -39 25 -50 31 -38 20 -70 39 -75 44 -3
3 -17 13 -32 23 l-27 17 38 82 c51 110 74 217 69 327 l-3 87 117 -37 c212 -67
306 -72 421 -22 129 58 200 200 162 330 -19 63 -42 102 -93 150 -40 38 -126
83 -158 83 -21 0 -20 3 17 58 85 128 77 303 -17 403 -14 14 -46 37 -72 50 -40
20 -61 24 -142 24 -101 0 -139 -13 -216 -72 l-32 -24 -7 38 c-15 84 -101 188
-185 225 -62 27 -144 32 -200 12z m187 -110 c70 -41 115 -120 126 -221 5 -38
0 -48 -59 -130 -36 -48 -68 -89 -73 -91 -4 -1 -11 23 -14 55 -11 102 -33 141
-72 127 -26 -10 -27 -44 -5 -176 l20 -127 -27 -45 c-25 -41 -28 -43 -54 -34
-31 11 -43 37 -98 210 -61 192 -65 271 -18 351 67 113 169 143 274 81z m571
-186 c102 -68 110 -226 16 -337 -39 -46 -242 -196 -393 -290 l-83 -51 -19 22
c-10 13 -18 28 -19 34 0 6 66 75 146 155 80 79 154 157 166 172 27 37 18 77
-18 77 -19 0 -64 -38 -190 -162 -91 -90 -170 -164 -177 -165 -7 -2 -22 6 -35
16 l-22 19 51 83 c127 204 255 371 319 413 81 54 189 59 258 14z m-848 -509
c219 -60 359 -216 397 -439 14 -81 14 -100 0 -181 -20 -120 -75 -234 -152
-317 -31 -34 -62 -62 -67 -62 -18 0 -130 60 -198 106 -36 23 -104 77 -152 119
-50 44 -95 75 -104 73 -9 -2 -23 -13 -31 -25 -14 -20 -12 -25 28 -68 57 -62
220 -184 314 -236 41 -22 75 -43 75 -45 0 -2 -318 -4 -706 -4 l-705 0 85 125
c110 161 165 235 174 235 4 -1 27 -28 52 -61 63 -85 232 -259 252 -259 20 0
48 26 48 45 0 8 -36 51 -81 97 -96 98 -209 237 -209 256 0 13 160 221 170 221
3 0 21 -27 40 -61 36 -64 137 -178 157 -178 16 0 43 28 43 44 0 7 -27 46 -59
86 -33 40 -73 98 -89 128 l-30 56 81 90 c102 111 171 167 264 212 133 65 272
80 403 43z m932 0 c85 -19 165 -100 183 -186 25 -122 -115 -245 -264 -230 -62
6 -180 39 -312 87 -67 24 -89 37 -98 57 -13 29 -13 30 50 63 35 18 37 18 168
-2 132 -21 132 -21 152 -2 41 42 5 69 -106 80 -36 4 -65 10 -65 13 0 3 42 36
92 73 99 72 92 70 200 47z m-2652 -679 l0 -400 -941 0 -941 0 48 56 c27 31 89
94 139 141 410 387 949 591 1583 601 l112 2 0 -400z m369 374 c121 -14 426
-76 439 -88 3 -3 -14 -29 -37 -58 -108 -136 -285 -376 -366 -496 l-89 -133
-81 3 -80 3 -2 389 c-2 213 -1 392 2 396 5 9 13 8 214 -16z m1677 -745 c19
-11 34 -23 34 -25 0 -2 -28 -4 -62 -4 l-61 0 23 25 c28 30 25 30 66 4z m382
-214 c46 -19 114 -44 152 -56 39 -11 70 -23 70 -25 0 -2 -525 -4 -1166 -4
-747 0 -1172 -4 -1184 -10 -39 -21 -37 -110 2 -131 16 -8 380 -11 1361 -10
l1340 1 91 -92 c74 -76 100 -111 140 -188 l48 -95 -93 -5 c-115 -7 -180 -36
-233 -105 -85 -112 -70 -265 34 -359 63 -56 100 -69 228 -74 l112 -5 0 -43 0
-44 -329 0 -328 0 -12 58 c-14 71 -75 199 -128 267 -124 159 -336 255 -538
241 -184 -12 -324 -77 -439 -203 l-49 -53 -1126 0 -1127 0 -49 51 c-50 51
-165 133 -219 157 -53 23 -190 52 -249 52 -148 0 -323 -65 -430 -161 -101 -90
-179 -222 -207 -351 l-13 -58 -274 0 -273 0 0 28 c0 39 17 140 46 277 49 228
203 642 256 688 14 12 37 17 78 17 69 0 101 20 102 66 1 43 -19 74 -53 81 -16
3 -29 9 -29 14 0 5 14 31 31 59 l31 50 2172 0 2172 0 82 -35z m887 -775 c-3
-5 -1 -10 4 -10 7 0 11 -38 11 -105 l0 -105 -99 0 c-99 0 -100 0 -135 34 -29
26 -36 41 -36 70 0 90 51 125 178 126 53 0 81 -4 77 -10z m-4432 -80 c98 -30
195 -99 245 -173 119 -177 129 -335 36 -532 -29 -61 -46 -83 -102 -128 -111
-90 -207 -127 -332 -127 -216 0 -408 143 -471 353 -17 54 -21 87 -17 165 3 87
7 105 41 176 62 131 185 236 317 272 73 20 208 17 283 -6z m3341 -18 c107 -50
184 -118 228 -199 113 -210 85 -432 -76 -597 -129 -133 -319 -180 -499 -123
-265 85 -406 363 -317 628 50 150 162 259 318 310 45 15 80 18 167 16 100 -3
117 -6 179 -35z m-814 -233 c0 -7 -4 -28 -10 -48 -5 -20 -12 -48 -15 -63 l-5
-28 -1001 0 c-791 0 -1000 3 -1003 13 -2 6 -8 32 -14 57 -6 25 -14 53 -17 63
-7 16 46 17 1029 17 766 0 1036 -3 1036 -11z"/>
<path d="M869 3641 c-29 -23 -31 -81 -4 -111 17 -19 29 -20 226 -20 l208 0 20
26 c27 34 27 64 0 98 l-20 26 -204 0 c-183 0 -205 -2 -226 -19z"/>
<path d="M1550 3640 c-12 -12 -20 -33 -20 -55 0 -22 8 -43 20 -55 19 -19 33
-20 228 -20 226 0 229 1 246 57 8 26 -16 78 -39 87 -9 3 -106 6 -216 6 -186 0
-200 -1 -219 -20z"/>
<path d="M2242 3644 c-17 -12 -22 -25 -22 -58 0 -74 6 -76 243 -76 199 0 207
1 227 22 27 30 26 79 -3 106 -22 21 -32 22 -223 22 -164 0 -203 -3 -222 -16z"/>
<path d="M1290 2707 c-223 -62 -294 -333 -131 -496 84 -84 210 -113 304 -70
59 27 66 32 108 74 72 73 101 215 63 313 -50 132 -212 216 -344 179z m140
-167 c70 -36 92 -124 47 -191 -65 -98 -201 -83 -243 26 -27 73 -3 130 71 169
40 21 78 20 125 -4z"/>
<path d="M4580 2705 c-221 -61 -290 -337 -123 -497 56 -55 115 -78 198 -78
117 0 206 56 263 165 39 73 38 177 -1 257 -62 126 -203 189 -337 153z m135
-159 c45 -19 75 -69 75 -124 0 -58 -25 -98 -78 -123 -58 -29 -104 -19 -154 31
-33 33 -38 44 -38 84 0 61 22 101 68 125 45 24 81 26 127 7z"/>
<path d="M2733 1911 c-12 -11 -24 -17 -27 -14 -8 8 -8 -36 0 -73 10 -50 32
-54 329 -54 l272 0 28 24 c38 33 39 80 1 113 -27 23 -28 23 -305 23 -261 0
-278 -1 -298 -19z"/>
</g>
</svg>
