<?xml version="1.0" encoding="UTF-8" standalone="no"?>
<svg
   version="1.0"
   width="666.000000pt"
   height="666.000000pt"
   viewBox="0 0 666.000000 666.000000"
   preserveAspectRatio="xMidYMid meet"
   id="svg7"
   sodipodi:docname="safari-pinned-tab.svg"
   inkscape:version="1.3.2 (091e20e, 2023-11-25, custom)"
   xmlns:inkscape="http://www.inkscape.org/namespaces/inkscape"
   xmlns:sodipodi="http://sodipodi.sourceforge.net/DTD/sodipodi-0.dtd"
   xmlns="http://www.w3.org/2000/svg"
   xmlns:svg="http://www.w3.org/2000/svg">
  <defs
     id="defs7" />
  <sodipodi:namedview
     id="namedview7"
     pagecolor="#505050"
     bordercolor="#eeeeee"
     borderopacity="1"
     inkscape:showpageshadow="0"
     inkscape:pageopacity="0"
     inkscape:pagecheckerboard="0"
     inkscape:deskcolor="#505050"
     inkscape:document-units="pt"
     showgrid="false"
     inkscape:zoom="1.347973"
     inkscape:cx="453.64411"
     inkscape:cy="453.64411"
     inkscape:window-width="2560"
     inkscape:window-height="1411"
     inkscape:window-x="-9"
     inkscape:window-y="-9"
     inkscape:window-maximized="1"
     inkscape:current-layer="svg7" />
  <metadata
     id="metadata1">
Created by potrace 1.14, written by Peter Selinger 2001-2017
</metadata>
  <g
     transform="translate(0.000000,666.000000) scale(0.100000,-0.100000)"
     fill="#000000"
     stroke="none"
     id="g7">
    <path
       d="m 4440,5814 c -102,-37 -181,-133 -201,-246 -15,-84 -2,-171 50,-335 l 37,-118 -93,3 c -218,9 -391,-71 -580,-264 l -103,-105 -142,36 c -427,108 -920,132 -1328,65 -183,-30 -406,-90 -510,-137 -30,-14 -76,-34 -102,-44 C 1077.6412,4519.5061 603.39497,3992.1639 577,3965 550.60503,3937.8361 521,3888 475,3819 341,3616 203,3335 140,3135 70,2913 15,2650 4,2480 -2,2402 0,2393 20,2370 l 22,-25 338,-3 338,-3 16,-70 c 22.52061,-97.5893 90.62557,-222.6256 141,-273 25,-26 45,-51 45,-56 0,-6 -92,-10 -253,-10 -252,0 -254,0 -275,-23 -31,-33 -29,-83 4,-113 l 25,-24 h 935 c 692,0 941,3 957,12 52,27 40.83,92.8671 22,123 -18.83,30.1329 -280,25 -280,25 -286,0 -272,-5 -204,70 73,81 149,240 149,314 v 26 h 1005 1005 l 6,-27 c 19,-85 29,-115 60,-179 19,-39 57,-96 84,-125 27,-30 49,-60 50,-66 0,-10 -51.009,-11.2373 -224,-13 -212.8455,-2.1688 -231.4783,-3.1594 -250,-25 -34.3281,-40.4794 -35,-93 9,-117 28,-16 130,-17 1443,-18 1414,0 1414,0 1443,21 23,16 29,28 29,58 0,23 -8,47 -19,59 l -18,22 h -757 c -660,0 -756,2 -756,15 21.517,19.7835 41.9915,62.8645 58,81 52,57 102,162 122,256 l 13,57 386,3 c 379,3 387,3 410,24 l 23,22 -4,308 c -4,281 -6,316 -26,387 0,0 -78.306,215.8655 -142,310 -62.8935,92.9514 -162,198 -232,244 -24,16 -52,36 -62,45 -36,33 -181,97 -276,123 -119,33 -231,70 -290,97 -94,42 -136,63 -165,83 -16,11 -39,25 -50,31 -38,20 -70,39 -75,44 -3,3 -17,13 -32,23 l -27,17 38,82 c 51,110 74,217 69,327 l -3,87 117,-37 c 212,-67 306,-72 421,-22 129,58 200,200 162,330 -19,63 -42,102 -93,150 -40,38 -126,83 -158,83 -21,0 -20,3 17,58 85,128 77,303 -17,403 -14,14 -46,37 -72,50 -40,20 -61,24 -142,24 -101,0 -139,-13 -216,-72 l -32,-24 -7,38 c -15,84 -101,188 -185,225 -62,27 -144,32 -200,12 z m 187,-110 c 70,-41 115,-120 126,-221 5,-38 0,-48 -59,-130 -36,-48 -68,-89 -73,-91 -4,-1 -11,23 -14,55 -11,102 -33,141 -72,127 -26,-10 -27,-44 -5,-176 l 20,-127 -27,-45 c -25,-41 -28,-43 -54,-34 -31,11 -43,37 -98,210 -61,192 -65,271 -18,351 67,113 169,143 274,81 z m 571,-186 c 102,-68 110,-226 16,-337 -39,-46 -242,-196 -393,-290 l -83,-51 -19,22 c -10,13 -18,28 -19,34 0,6 66,75 146,155 80,79 154,157 166,172 27,37 18,77 -18,77 -19,0 -64,-38 -190,-162 -91,-90 -170,-164 -177,-165 -7,-2 -22,6 -35,16 l -22,19 51,83 c 127,204 255,371 319,413 81,54 189,59 258,14 z m -848,-509 c 219,-60 359,-216 397,-439 14,-81 14,-100 0,-181 -20,-120 -75,-234 -152,-317 -31,-34 -62,-62 -67,-62 -18,0 -130,60 -198,106 -36,23 -104,77 -152,119 -50,44 -95,75 -104,73 -9,-2 -23,-13 -31,-25 -14,-20 -12,-25 28,-68 57,-62 220,-184 314,-236 41,-22 75,-43 75,-45 0,-2 -318,-4 -706,-4 h -705 l 85,125 c 110,161 165,235 174,235 4,-1 27,-28 52,-61 63,-85 232,-259 252,-259 20,0 48,26 48,45 0,8 -36,51 -81,97 -96,98 -209,237 -209,256 0,13 160,221 170,221 3,0 21,-27 40,-61 36,-64 137,-178 157,-178 16,0 43,28 43,44 0,7 -27,46 -59,86 -33,40 -73,98 -89,128 l -30,56 81,90 c 102,111 171,167 264,212 133,65 272,80 403,43 z m 932,0 c 85,-19 165,-100 183,-186 25,-122 -115,-245 -264,-230 -62,6 -180,39 -312,87 -67,24 -89,37 -98,57 -13,29 -13,30 50,63 35,18 37,18 168,-2 132,-21 132,-21 152,-2 41,42 5,69 -106,80 -36,4 -65,10 -65,13 0,3 42,36 92,73 99,72 92,70 200,47 z M 2630,4330 V 3930 H 1689 748 l 48,56 c 27,31 89,94 139,141 410,387 949,591 1583,601 l 112,2 z m 369,374 c 121,-14 426,-76 439,-88 3,-3 -14,-29 -37,-58 -108,-136 -285,-376 -366,-496 l -89,-133 -81,3 -80,3 -2,389 c -2,213 -1,392 2,396 5,9 13,8 214,-16 z m 1677,-745 c 19,-11 34,-23 34,-25 0,-2 -28,-4 -62,-4 h -61 l 23,25 c 28,30 25,30 66,4 z m 382,-214 c 46,-19 114,-44 152,-56 39,-11 70,-23 70,-25 0,-2 -525,-4 -1166,-4 -747,0 -1172,-4 -1184,-10 -39,-21 -37,-110 2,-131 16,-8 380,-11 1361,-10 l 1340,1 91,-92 c 74,-76 100,-111 140,-188 l 48,-95 -93,-5 c -115,-7 -180,-36 -233,-105 -85,-112 -70,-265 34,-359 63,-56 100,-69 228,-74 l 112,-5 v -43 -44 h -329 -328 l -12,58 c -14,71 -75,199 -128,267 -124,159 -336,255 -538,241 -184,-12 -324,-77 -439,-203 l -49,-53 H 3011 1884 l -49,51 c -50,51 -165,133 -219,157 -53,23 -190,52 -249,52 -148,0 -323,-65 -430,-161 -101,-90 -179,-222 -207,-351 l -13,-58 H 443 170 v 28 c 0,39 17,140 46,277 49,228 203,642 256,688 14,12 37,17 78,17 69,0 101,20 102,66 1,43 -19,74 -53,81 -16,3 -29,9 -29,14 0,5 14,31 31,59 l 31,50 h 2172 2172 z m 887,-775 c -3,-5 -1,-10 4,-10 7,0 11,-38 11,-105 v -105 h -99 c -99,0 -100,0 -135,34 -29,26 -36,41 -36,70 0,90 51,125 178,126 53,0 81,-4 77,-10 z m -4432,-80 c 98,-30 195,-99 245,-173 119,-177 129,-335 36,-532 -29,-61 -46,-83 -102,-128 -111,-90 -207,-127 -332,-127 -216,0 -408,143 -471,353 -17,54 -21,87 -17,165 3,87 7,105 41,176 62,131 185,236 317,272 73,20 208,17 283,-6 z m 3341,-18 c 107,-50 184,-118 228,-199 113,-210 85,-432 -76,-597 -129,-133 -319,-180 -499,-123 -265,85 -406,363 -317,628 50,150 162,259 318,310 45,15 80,18 167,16 100,-3 117,-6 179,-35 z m -814,-233 c 0,-7 -4,-28 -10,-48 -5,-20 -12,-48 -15,-63 l -5,-28 H 3009 c -791,0 -1000,3 -1003,13 -2,6 -8,32 -14,57 -6,25 -14,53 -17,63 -7,16 46,17 1029,17 766,0 1036,-3 1036,-11 z"
       id="path1"
       sodipodi:nodetypes="ccccccccccczcccccccccsscccsczccscccccccsscccsccssccccccccaccccccscccccccccsccssccccccccccccccccccccccccccscccccccccccsccscccssccccsscsscsscccccccccccccccsccccccccccccccccccccccsscccccsscccccccccccccccccccccccccscccccsccsccsccccccsscscsccccccscccccccccccccscccscscss" />
    <path
       d="M869 3641 c-29 -23 -31 -81 -4 -111 17 -19 29 -20 226 -20 l208 0 20 26 c27 34 27 64 0 98 l-20 26 -204 0 c-183 0 -205 -2 -226 -19z"
       id="path2" />
    <path
       d="M1550 3640 c-12 -12 -20 -33 -20 -55 0 -22 8 -43 20 -55 19 -19 33 -20 228 -20 226 0 229 1 246 57 8 26 -16 78 -39 87 -9 3 -106 6 -216 6 -186 0 -200 -1 -219 -20z"
       id="path3" />
    <path
       d="M2242 3644 c-17 -12 -22 -25 -22 -58 0 -74 6 -76 243 -76 199 0 207 1 227 22 27 30 26 79 -3 106 -22 21 -32 22 -223 22 -164 0 -203 -3 -222 -16z"
       id="path4" />
    <path
       d="M1290 2707 c-223 -62 -294 -333 -131 -496 84 -84 210 -113 304 -70 59 27 66 32 108 74 72 73 101 215 63 313 -50 132 -212 216 -344 179z m140 -167 c70 -36 92 -124 47 -191 -65 -98 -201 -83 -243 26 -27 73 -3 130 71 169 40 21 78 20 125 -4z"
       id="path5" />
    <path
       d="M4580 2705 c-221 -61 -290 -337 -123 -497 56 -55 115 -78 198 -78 117 0 206 56 263 165 39 73 38 177 -1 257 -62 126 -203 189 -337 153z m135 -159 c45 -19 75 -69 75 -124 0 -58 -25 -98 -78 -123 -58 -29 -104 -19 -154 31 -33 33 -38 44 -38 84 0 61 22 101 68 125 45 24 81 26 127 7z"
       id="path6" />
    <path
       d="m 2734.2559,1902.2059 c -27.6413,-26.8358 -36.626,-75.6642 -12.2597,-104.6345 25.6144,-30.454 65.9413,-28.3523 313.0038,-27.5714 236.6675,0.748 264.8031,-2.4592 300,24 30.1093,22.6346 39,80 1,113 -27,23 -203.0451,22.7137 -305,23 -197.8943,0.5557 -269.1028,-0.9583 -296.7441,-27.7941 z"
       id="path7"
       sodipodi:nodetypes="zssscsz" />
  </g>
</svg>
