<?xml version="1.0" standalone="no"?>
<!DOCTYPE svg PUBLIC "-//W3C//DTD SVG 20010904//EN"
 "http://www.w3.org/TR/2001/REC-SVG-20010904/DTD/svg10.dtd">
<svg version="1.0" xmlns="http://www.w3.org/2000/svg"
 width="500.000000pt" height="500.000000pt" viewBox="0 0 500.000000 500.000000"
 preserveAspectRatio="xMidYMid meet">
<metadata>
Created by potrace 1.14, written by Peter Selinger 2001-2017
</metadata>
<g transform="translate(0.000000,500.000000) scale(0.100000,-0.100000)"
fill="#000000" stroke="none">
<path d="M3156 4835 c-46 -13 -146 -72 -146 -86 0 -4 -11 -17 -25 -30 -13 -13
-25 -27 -25 -31 0 -4 -10 -22 -23 -41 -13 -19 -29 -61 -36 -93 -7 -32 -16 -65
-20 -73 -7 -15 1 -84 22 -181 6 -30 12 -62 13 -70 1 -8 3 -22 6 -30 3 -8 38
-115 78 -237 39 -121 78 -230 85 -240 16 -23 107 -61 112 -47 2 5 18 33 36 63
53 89 58 101 50 114 -4 6 -9 23 -10 37 -2 14 -8 57 -14 97 -6 39 -9 78 -6 87
3 8 1 16 -4 18 -12 4 -22 71 -23 158 -1 59 1 65 25 79 33 18 72 8 86 -21 5
-13 18 -77 28 -143 25 -172 23 -170 73 -102 23 31 42 61 42 67 0 5 8 10 17 10
9 0 14 3 10 6 -3 4 20 41 52 83 84 110 83 107 70 197 -20 143 -77 258 -162
328 -96 78 -214 109 -311 81z"/>
<path d="M4083 4515 c-24 -7 -43 -11 -43 -8 0 3 -7 0 -15 -7 -8 -7 -28 -20
-44 -29 -53 -30 -120 -76 -121 -82 0 -4 -14 -22 -31 -40 -52 -56 -235 -304
-338 -459 -52 -80 -98 -147 -101 -150 -3 -3 -13 -22 -22 -42 -10 -21 -21 -38
-25 -38 -9 0 -37 -59 -32 -64 19 -18 101 -76 107 -76 4 0 135 128 292 284 157
157 292 285 300 286 42 6 60 -2 75 -29 10 -21 12 -37 6 -53 -5 -13 -127 -140
-270 -283 -144 -142 -261 -262 -261 -265 0 -3 -9 -11 -20 -18 -26 -16 -25 -33
1 -63 12 -13 28 -34 36 -46 9 -13 19 -23 23 -23 9 0 122 67 129 77 3 5 11 9
17 10 35 6 536 365 617 442 185 176 224 394 100 565 -37 52 -97 93 -162 113
-56 16 -163 16 -218 -2z"/>
<path d="M2555 3640 c-2 -4 -26 -11 -52 -15 -55 -8 -198 -57 -268 -92 -27 -14
-78 -45 -113 -69 -35 -24 -66 -44 -70 -44 -7 0 -268 -263 -357 -358 l-39 -42
26 -54 c40 -81 172 -279 180 -271 3 3 13 -11 24 -30 10 -19 22 -35 26 -35 3 0
16 -14 28 -30 42 -58 1 -122 -63 -100 -47 17 -257 275 -257 317 0 7 -4 13 -8
13 -5 0 -16 16 -25 35 -9 19 -20 35 -24 35 -5 0 -37 -36 -73 -81 -36 -44 -104
-129 -152 -187 -48 -59 -88 -112 -88 -119 0 -6 28 -47 63 -91 34 -43 73 -94
87 -113 14 -19 54 -65 90 -104 36 -38 70 -75 75 -81 33 -40 100 -107 130 -130
19 -14 35 -33 35 -41 0 -8 5 -11 10 -8 13 8 13 -51 0 -76 -8 -13 -21 -19 -47
-19 -33 0 -48 11 -165 127 -70 70 -128 132 -128 138 0 7 -11 18 -25 25 -14 7
-25 16 -25 20 0 9 -180 234 -191 238 -4 2 -13 -7 -20 -20 -7 -13 -45 -67 -85
-120 -41 -54 -80 -111 -89 -128 -9 -16 -19 -30 -23 -30 -4 0 -12 -9 -17 -19
-18 -36 -128 -196 -136 -199 -5 -2 -9 -8 -9 -13 0 -5 -16 -31 -35 -58 -19 -26
-35 -54 -35 -61 0 -26 108 -184 185 -268 16 -19 29 -36 27 -38 -1 -3 17 -21
42 -42 24 -20 49 -46 56 -57 6 -11 38 -42 71 -68 51 -42 59 -53 59 -82 0 -61
-62 -84 -106 -40 -14 14 -28 25 -31 25 -10 0 -135 112 -140 126 -2 6 -24 32
-48 57 -24 25 -61 70 -83 99 -22 29 -49 63 -61 75 -12 12 -21 28 -21 36 0 16
-20 37 -35 37 -16 0 -304 -526 -306 -560 -1 -3 -9 -23 -19 -45 -39 -87 -90
-235 -110 -320 -12 -50 -25 -106 -31 -126 -16 -62 -11 -154 12 -216 12 -32 25
-60 28 -63 3 -3 11 -14 17 -25 28 -50 148 -103 242 -105 76 -2 363 67 370 89
2 5 9 8 15 5 16 -6 130 39 134 53 3 7 -14 23 -36 37 -51 32 -207 164 -244 206
-24 27 -28 37 -22 70 6 38 22 50 69 50 11 0 49 -28 85 -62 103 -98 134 -123
204 -166 16 -9 38 -25 50 -35 42 -36 65 -33 161 18 114 59 159 84 266 148 47
27 91 50 98 50 6 0 12 6 12 14 0 7 6 13 13 13 8 0 112 65 233 145 120 80 219
145 221 145 7 0 43 41 43 48 0 4 -42 27 -94 50 -51 24 -117 59 -146 78 -28 19
-56 34 -60 34 -5 0 -15 6 -22 13 -7 6 -40 32 -73 56 -33 25 -62 47 -65 51 -3
3 -34 30 -68 60 -79 68 -99 102 -81 137 8 14 24 29 38 34 28 11 44 2 114 -63
26 -24 47 -42 47 -40 0 2 18 -12 41 -33 123 -111 456 -285 517 -270 26 6 73
36 104 64 9 9 57 45 107 81 49 36 90 70 91 75 0 6 -48 33 -108 62 -121 58
-237 132 -307 195 -58 53 -66 98 -24 130 33 25 55 19 106 -28 86 -79 212 -154
362 -214 108 -44 106 -44 196 30 131 107 335 289 335 298 0 4 -30 23 -67 41
-38 18 -90 48 -118 65 -27 18 -80 52 -117 75 -38 24 -68 47 -68 52 0 5 -6 9
-14 9 -8 0 -21 6 -28 13 -7 7 -22 19 -34 27 -87 61 -284 250 -284 273 0 21 36
64 59 70 22 5 53 -16 123 -84 26 -25 50 -44 53 -41 3 3 5 1 5 -4 0 -11 134
-120 230 -186 89 -61 221 -139 304 -180 l68 -33 78 82 c86 93 150 183 204 290
43 86 83 203 91 262 3 24 8 47 11 52 7 12 14 82 14 144 -1 95 -46 296 -85 375
-62 126 -94 176 -164 258 -25 30 -63 66 -85 82 -23 15 -54 40 -71 55 -34 30
-185 104 -260 128 -121 39 -345 62 -360 38 -3 -6 -17 -6 -35 -1 -16 5 -32 5
-35 0z"/>
<path d="M4301 3612 c-18 -15 -51 -42 -73 -59 -22 -18 -46 -33 -53 -33 -7 0
-15 -4 -17 -8 -1 -5 -32 -30 -68 -56 -36 -27 -65 -53 -65 -59 0 -11 105 -31
208 -41 86 -8 127 -57 92 -110 -13 -19 -26 -26 -49 -26 -44 0 -166 19 -180 27
-6 4 -22 6 -36 5 -14 -1 -51 4 -82 11 -40 10 -60 11 -67 4 -8 -8 -11 -8 -11 0
0 6 -15 13 -32 16 -26 3 -50 -5 -113 -41 -44 -25 -82 -47 -84 -49 -2 -1 7 -27
19 -58 12 -31 25 -53 28 -50 3 2 10 1 16 -3 6 -5 67 -28 136 -52 69 -24 130
-47 137 -52 7 -6 14 -4 18 3 5 7 10 8 14 1 11 -18 326 -105 376 -104 240 6
432 168 428 362 -1 78 -2 81 -37 149 -31 59 -125 161 -150 161 -9 0 -16 4 -16
9 0 21 -149 67 -245 75 -54 4 -63 2 -94 -22z"/>
<path d="M1555 2030 c-3 -5 1 -10 10 -10 9 0 13 5 10 10 -3 6 -8 10 -10 10 -2
0 -7 -4 -10 -10z"/>
<path d="M1584 2012 c-7 -5 -7 -14 1 -29 7 -13 15 -20 18 -16 4 3 7 -5 7 -18
0 -19 2 -21 10 -9 9 14 11 12 14 -20 1 -15 66 -27 66 -12 -1 21 -103 113 -116
104z"/>
<path d="M1065 1210 c-3 -5 -2 -10 4 -10 5 0 13 5 16 10 3 6 2 10 -4 10 -5 0
-13 -4 -16 -10z"/>
</g>
</svg>
