<?xml version="1.0" encoding="UTF-8" standalone="no"?>
<svg
   version="1.0"
   width="500.000000pt"
   height="500.000000pt"
   viewBox="0 0 500.000000 500.000000"
   preserveAspectRatio="xMidYMid meet"
   id="svg7"
   sodipodi:docname="safari-pinned-tab.svg"
   inkscape:version="1.3.2 (091e20e, 2023-11-25, custom)"
   xmlns:inkscape="http://www.inkscape.org/namespaces/inkscape"
   xmlns:sodipodi="http://sodipodi.sourceforge.net/DTD/sodipodi-0.dtd"
   xmlns="http://www.w3.org/2000/svg"
   xmlns:svg="http://www.w3.org/2000/svg">
  <defs
     id="defs7" />
  <sodipodi:namedview
     id="namedview7"
     pagecolor="#505050"
     bordercolor="#eeeeee"
     borderopacity="1"
     inkscape:showpageshadow="0"
     inkscape:pageopacity="0"
     inkscape:pagecheckerboard="0"
     inkscape:deskcolor="#505050"
     inkscape:document-units="pt"
     inkscape:zoom="0.89775"
     inkscape:cx="360.34531"
     inkscape:cy="423.83737"
     inkscape:window-width="2560"
     inkscape:window-height="1411"
     inkscape:window-x="-9"
     inkscape:window-y="-9"
     inkscape:window-maximized="1"
     inkscape:current-layer="svg7" />
  <metadata
     id="metadata1">
Created by potrace 1.14, written by Peter Selinger 2001-2017
</metadata>
  <g
     transform="translate(0.000000,500.000000) scale(0.100000,-0.100000)"
     fill="#000000"
     stroke="none"
     id="g7">
    <path
       d="m 3156,4835 c -138.9296,-35.1925 -323.7905,-259.4556 -253,-535 18.9114,-73.6106 169.2637,-564.0822 182,-577 21.6265,-21.9346 99.2412,-69.7215 112,-47 18.4664,32.886 90.6508,134.7842 86,177 -4.5595,41.387 -41.1503,253.5132 -57,397 -6.4787,58.6517 9.0495,69.8889 25,79 25.6233,14.6364 77.4988,14.6194 86,-21 8.5012,-35.6194 7.8845,-32.0941 28,-143 20.1155,-110.9059 23,-170 73,-102 l 121,166 c 84,110 83,107 70,197 -20,143 -73.1884,255.6786 -162,328 -88.8116,72.3214 -172.0704,116.1925 -311,81 z"
       id="path1"
       sodipodi:nodetypes="zzzsssszzccczz" />
    <path
       d="m 4083,4515 c -76.3325,-20.4483 -165.2908,-70.8281 -223,-126 -19.2483,-18.402 -279.0792,-365.5839 -369,-499 -89.9208,-133.4161 -178.9394,-279.7231 -180,-294 -1.0606,-14.2769 101,-76 107,-76 4,0 135.2498,127.749 292,284 157.2502,156.7494 282.1393,281.2824 300,286 41.0196,10.8346 61.3805,-11.3527 75,-29 13.6195,-17.6473 12.0603,-37.0228 6,-53 -4.9398,-13.023 -126.3449,-140.6582 -270,-283 -274.762,-272.25 -266.1022,-265.3268 -281,-283 -19.6763,-23.3419 -25.2885,-33.2525 1,-63 31.1007,-35.1928 49.0245,-69 59,-69 38.3276,0 642.7963,414.6788 763,529 185.0267,175.9719 223.6436,393.7421 100,565 -37.3576,51.7437 -95.8377,92.5375 -162,113 -66.1623,20.4625 -141.6675,18.4483 -218,-2 z"
       id="path2"
       sodipodi:nodetypes="zszzssszssssssszz" />
    <path
       d="m 2503,3625 c -55,-8 -198,-57 -268,-92 -27,-14 -78,-45 -113,-69 -138.9826,-95.3024 -267.4295,-231.6719 -427,-402 l -39,-42 c 77.5366,-149.5994 186.9425,-282.3138 284,-420 42,-58 1,-122 -63,-100 -207.225,262.6459 -147.5265,188.3241 -314,400 -3.0909,3.9302 -37,-36 -73,-81 -36,-44 -104,-129 -152,-187 -48,-59 -88,-112 -88,-119 0,-6 28,-47 63,-91 193.2827,-244.4457 310.345,-373.0645 382,-428 23.4009,-17.2428 76.2689,-64.8675 45,-125 -8,-13 -21,-19 -47,-19 -33,0 -48,11 -165,127 -360.2899,412.08 -2.2257,2.4148 -369,421 -11.6826,5.8414 -449,-621.4127 -449,-648 81.24019,-157.0284 238.64855,-358.4103 381,-473 51,-42 59,-53 59,-82 0,-61 -62,-84 -106,-40 -116.13344,83.1512 -211.22403,196.5137 -302,307 -89.93239,109.4595 -2.01493,1.2258 -117,148 C 495.92626,1421.1815 393.74313,1213.4068 300,1005 247.76176,888.46854 73.562994,466.61348 199,280 256.89902,192.8418 361.83359,159.12375 458,150 c 179.00164,-16.98271 503.44626,92.5619 519,147 3,7 -14,23 -36,37 -51,32 -207,164 -244,206 -24,27 -41.86118,75.70875 -5.8137,110.20468 C 733.91192,691.09132 812.30026,617.03139 829,598 905.91287,519.75754 993.33436,460.37197 1074.8774,388.87743 1116.8774,352.87743 1148,364 1244,415 c 548.7369,283.99544 886,550.99227 886,563 -267.8805,121.9952 -654.7921,389.9598 -609,479 8,14 24,29 38,34 28,11 44,2 114,-63 208.1339,-192.1236 544.0701,-357.9828 605,-343 26,6 73,36 104,64 9,9 57,45 107,81 49,36 90,70 91,75 0,6 -48,33 -108,62 -121,58 -237,132 -307,195 -58,53 -66,98 -24,130 33,25 55,19 106,-28 86,-79 212,-154 362,-214 108,-44 106,-44 196,30 131,107 335,289 335,298 -100.0434,59.5829 -202.6947,118.3459 -302,181 -192.2241,121.4047 -421.9411,339.6409 -428,374 -5.2994,30.0523 2.5248,69.5583 59,70 49.2845,0.3855 216.9514,-178.4398 411,-315 89,-61 221,-139 304,-180 l 68,-33 78,82 c 290.6542,314.3121 320,632.2332 320,748 -0.6063,57.5982 -15.3051,359.2431 -249,633 -95.3228,114.3874 -279.1976,221.2232 -416,265 -121,39 -239.3429,39.5226 -360,38 -41.0116,-0.5175 -91.3697,-10.9055 -122,-16 z"
       id="path3"
       sodipodi:nodetypes="ccsccccsccscccsccscsssscsacccscccscccccccccccccscsscccccccac" />
    <path
       d="m 4301,3612 c -109.0561,-90.8801 -276,-191.626 -276,-215 0,-11 105,-31 208,-41 86,-8 127.2311,-57.1533 92,-110 -12.7702,-19.1552 -26,-26 -49,-26 -52.362,0 -355.6468,53.1927 -408,63 -25.725,4.8191 -49.9638,-5.0635 -113,-41 -43.9639,-25.0635 -82,-47 -84,-49 -2,-1 7,-27 19,-58 12,-31 24.3053,-47.9146 28,-50 14.6125,-8.2476 491.6584,-206.1359 697,-207 205.3416,-0.8641 426.1384,169.1477 428,362 1.8616,192.8523 -265.0004,374.9159 -448,394 -54,4 -63,2 -94,-22 z"
       id="path4"
       sodipodi:nodetypes="cscsssscsszzcc" />
  </g>
</svg>
